HIERARCHY
ROOT Hips
{
 OFFSET 0.000000 0.000000 0.000000
 CHANNELS 6 Xposition Yposition Zposition Yrotation Xrotation Zrotation
 JOINT Chest
 {
  OFFSET 0.000000 9.585900 0.002600
  CHANNELS 3 Yrotation Xrotation Zrotation
  JOINT Chest2
  {
   OFFSET 0.000000 9.601200 -0.005300
   CHANNELS 3 Yrotation Xrotation Zrotation
   JOINT Chest3
   {
    OFFSET 0.000000 9.561800 0.000000
    CHANNELS 3 Yrotation Xrotation Zrotation
    JOINT Chest4
    {
     OFFSET 0.000000 9.552100 0.000000
     CHANNELS 3 Yrotation Xrotation Zrotation
     JOINT Neck
     {
      OFFSET 0.000000 14.453000 0.000000
      CHANNELS 3 Yrotation Xrotation Zrotation
      JOINT Head
      {
       OFFSET 0.000000 8.936500 -0.011300
       CHANNELS 3 Yrotation Xrotation Zrotation
       End Site
       {
        OFFSET 0.000000 17.073600 -0.006000
       }
      }
     }
     JOINT RightCollar
     {
      OFFSET -2.921100 9.558500 0.000000
      CHANNELS 3 Yrotation Xrotation Zrotation
      JOINT RightShoulder
      {
       OFFSET -13.519700 0.000000 0.000000
       CHANNELS 3 Yrotation Xrotation Zrotation
       JOINT RightElbow
       {
        OFFSET 0.000000 -29.696600 0.000000
        CHANNELS 3 Yrotation Xrotation Zrotation
        JOINT RightWrist
        {
         OFFSET 0.000000 -24.004700 0.000000
         CHANNELS 3 Yrotation Xrotation Zrotation
         End Site
         {
          OFFSET 0.000000 -17.728500 0.000000
         }
        }
       }
      }
     }
     JOINT LeftCollar
     {
      OFFSET 2.921100 9.558500 0.000000
      CHANNELS 3 Yrotation Xrotation Zrotation
      JOINT LeftShoulder
      {
       OFFSET 13.519700 0.000000 0.000000
       CHANNELS 3 Yrotation Xrotation Zrotation
       JOINT LeftElbow
       {
        OFFSET 0.000000 -29.696600 0.000000
        CHANNELS 3 Yrotation Xrotation Zrotation
        JOINT LeftWrist
        {
         OFFSET 0.000000 -24.004700 0.000000
         CHANNELS 3 Yrotation Xrotation Zrotation
         End Site
         {
          OFFSET 0.000000 -17.728500 0.000000
         }
        }
       }
      }
     }
    }
   }
  }
 }
 JOINT RightHip
 {
  OFFSET -7.771700 -0.012900 -0.001300
  CHANNELS 3 Yrotation Xrotation Zrotation
  JOINT RightKnee
  {
   OFFSET 0.000000 -40.869800 0.001200
   CHANNELS 3 Yrotation Xrotation Zrotation
   JOINT RightAnkle
   {
    OFFSET 0.000000 -39.717900 0.002100
    CHANNELS 3 Yrotation Xrotation Zrotation
    JOINT RightToe
    {
     OFFSET 0.000000 -4.965400 11.033500
     CHANNELS 3 Yrotation Xrotation Zrotation
     End Site
     {
      OFFSET 0.000000 -1.423100 5.872300
     }
    }
   }
  }
 }
 JOINT LeftHip
 {
  OFFSET 7.771700 -0.012900 -0.001300
  CHANNELS 3 Yrotation Xrotation Zrotation
  JOINT LeftKnee
  {
   OFFSET 0.000000 -40.869800 0.001200
   CHANNELS 3 Yrotation Xrotation Zrotation
   JOINT LeftAnkle
   {
    OFFSET 0.000000 -39.717900 0.002100
    CHANNELS 3 Yrotation Xrotation Zrotation
    JOINT LeftToe
    {
     OFFSET 0.000000 -4.965400 11.033500
     CHANNELS 3 Yrotation Xrotation Zrotation
     End Site
     {
      OFFSET 0.000000 -1.423100 5.872300
     }
    }
   }
  }
 }
}
MOTION
Frames: 16
Frame Time: 0.008333
0.000000 85.388000 0.000000 0.000000 -5.767877 0.000000 0.000000 11.653817 0.000000 0.000000 -5.885947 0.000000 0.000000 -0.000000 0.000000 0.000000 -0.000000 0.000000 0.000000 12.528835 0.000000 0.000000 0.711642 0.000000 0.000000 -0.000000 0.000000 0.000000 0.000000 -90.000000 0.000000 -2.309062 0.000000 0.000000 2.309062 0.000000 0.000000 -0.000000 0.000000 0.000000 -0.000000 90.000000 0.000000 -2.309062 0.000000 0.000000 2.309062 0.000000 0.000000 8.520406 0.000000 0.000000 1.905762 0.000000 -0.000000 -4.658285 0.000000 0.000000 -0.000000 0.000000 0.000000 8.520406 0.000000 0.000000 1.905762 0.000000 -0.000000 -4.658285 0.000000 0.000000 -0.000000 0.000000
-32.102757 57.424664 92.007331 -164.499629 -44.775014 -1.154873 -9.290536 24.073069 0.768896 -1.458113 3.947469 0.190339 -2.322551 6.295577 0.255997 -7.479832 19.930953 -0.088523 0.037098 15.153147 -9.085556 3.370326 -7.146526 -16.968483 6.669219 -3.921895 -4.288883 35.033713 -46.650101 -24.071953 38.948278 -10.048341 8.163880 9.524626 -10.164017 -46.326835 -11.385106 -9.086399 -4.778018 -11.628423 -35.959256 -5.904427 -40.484300 -16.130148 17.958005 -16.795050 -3.826637 31.900862 3.767388 -27.322608 -13.811531 7.947121 80.428229 10.567064 2.727499 0.065825 4.253654 -0.198150 -7.623679 0.191046 -13.335565 -32.793452 -17.806446 46.662335 76.717747 40.712115 -27.569249 -5.194253 -0.029562 0.188456 -0.850480 0.113354
-32.120792 57.429339 92.029116 -164.466017 -44.884554 -1.082848 -9.287274 24.064259 0.707853 -1.451655 3.952836 0.188966 -2.312170 6.303852 0.254046 -7.444432 19.949861 -0.091664 0.007413 15.198281 -9.091814 3.321196 -7.054739 -16.977286 6.646251 -3.922186 -4.264781 35.226220 -46.871163 -24.349135 38.326851 -9.646348 8.312217 9.268897 -10.355130 -45.816417 -11.414395 -9.082785 -4.739933 -11.591197 -35.749764 -5.893990 -39.614848 -16.678605 17.561584 -16.566077 -3.825276 31.957571 3.869982 -27.187388 -13.973473 7.877470 80.417402 10.557619 2.750504 0.070540 4.267400 -0.201517 -7.619276 0.194974 -13.343129 -32.717685 -17.872008 46.662575 76.665163 40.630130 -27.682765 -5.163512 -0.062835 0.233932 -0.829426 0.141864
-32.114782 57.430556 92.051840 -164.416660 -44.979826 -1.165040 -9.235285 24.064007 0.801545 -1.445662 3.958465 0.187683 -2.302514 6.312547 0.252228 -7.410874 19.968815 -0.094512 -0.022060 15.244323 -9.098454 3.256335 -6.987153 -16.963553 6.630924 -3.923534 -4.241021 35.393816 -47.097524 -24.596286 37.804089 -9.267306 8.408052 9.067031 -10.447142 -45.361801 -11.439963 -9.080526 -4.707253 -11.567850 -35.557718 -5.880678 -38.811440 -17.176370 17.189453 -16.340904 -3.843005 32.009119 3.893217 -27.067059 -13.957850 7.688318 80.374798 10.449420 2.774175 0.110222 4.270877 -0.205255 -7.622943 0.193532 -13.558685 -32.657324 -17.679470 46.681329 76.639553 40.465332 -27.839589 -5.073538 -0.107242 0.320759 -0.865564 0.194114
-32.119821 57.432367 92.079021 -164.396315 -45.099397 -1.158619 -9.199388 24.074735 0.814223 -1.440382 3.964106 0.186624 -2.293966 6.321200 0.250598 -7.380630 19.987039 -0.097092 -0.090124 15.301347 -9.097107 3.221124 -6.959846 -16.951865 6.625638 -3.922052 -4.220561 35.546488 -47.332382 -24.815377 37.381084 -8.904428 8.453318 8.894069 -10.434485 -44.979618 -11.457073 -9.076767 -4.681941 -11.541859 -35.385408 -5.868173 -38.090897 -17.629910 16.835603 -16.124743 -3.894143 32.076065 3.974758 -26.928034 -14.025194 7.641456 80.343369 10.468198 2.789844 0.147638 4.285668 -0.216222 -7.630381 0.195927 -13.633115 -32.573821 -17.651303 46.702393 76.602771 40.382864 -27.906333 -5.007757 -0.127898 0.325058 -0.882502 0.198515
-32.122999 57.432497 92.108867 -164.379450 -45.220725 -1.154769 -9.165369 24.085914 0.828419 -1.435648 3.969276 0.185403 -2.286365 6.329012 0.248651 -7.353901 20.003459 -0.100989 -0.094815 15.345355 -9.109252 3.151065 -6.866199 -16.945255 6.632903 -3.915834 -4.202718 35.689339 -47.571872 -25.014276 37.013829 -8.562475 8.459433 8.728229 -10.330942 -44.662403 -11.464591 -9.070047 -4.661440 -11.504277 -35.230650 -5.858460 -37.469985 -18.047296 16.498979 -15.919728 -3.987931 32.176833 4.051099 -26.793785 -14.076328 7.569979 80.313864 10.451893 2.793464 0.194556 4.303929 -0.218131 -7.642873 0.199112 -13.709229 -32.491666 -17.621522 46.732352 76.567701 40.312271 -27.952138 -4.941764 -0.153479 0.311359 -0.899614 0.201990
-32.126470 57.430543 92.141634 -164.360809 -45.338554 -1.140310 -9.144601 24.089353 0.826763 -1.431292 3.973705 0.183733 -2.279410 6.335761 0.246114 -7.330052 20.017776 -0.107014 -0.098125 15.389887 -9.119796 3.098232 -6.739309 -16.956069 6.650996 -3.907416 -4.186864 35.830610 -47.804872 -25.204474 36.654015 -8.255085 8.432546 8.550786 -10.133822 -44.374141 -11.463121 -9.063036 -4.642796 -11.455450 -35.089332 -5.851131 -36.950004 -18.439920 16.177938 -15.720014 -4.123687 32.312271 4.125849 -26.670986 -14.134107 7.521979 80.289217 10.446433 2.787659 0.252216 4.324046 -0.215945 -7.664625 0.205004 -13.780229 -32.417442 -17.609275 46.724672 76.533133 40.207614 -27.970498 -4.871093 -0.188825 0.329854 -0.911564 0.196000
-32.129991 57.428551 92.174746 -164.356063 -45.467833 -1.106032 -9.126948 24.098244 0.808144 -1.427367 3.977711 0.181594 -2.273142 6.341947 0.242883 -7.308866 20.030755 -0.115628 -0.116297 15.440645 -9.125197 3.049992 -6.672019 -16.941822 6.678434 -3.898738 -4.173065 35.979768 -48.023637 -25.396101 36.270979 -7.984749 8.375439 8.346306 -9.849440 -44.086652 -11.450208 -9.058194 -4.626002 -11.396552 -34.955270 -5.841695 -36.522797 -18.826410 15.864712 -15.531242 -4.282736 32.465165 4.192998 -26.541754 -14.187203 7.447155 80.268393 10.388402 2.784994 0.299280 4.351598 -0.216795 -7.677442 0.209032 -13.785830 -32.318341 -17.650042 46.709674 76.485290 40.144515 -27.967184 -4.808382 -0.226303 0.326994 -0.921169 0.197252
-32.132471 57.426007 92.208224 -164.347976 -45.601428 -1.067680 -9.121744 24.106824 0.777399 -1.423838 3.981680 0.179126 -2.267528 6.348033 0.239038 -7.289952 20.043146 -0.126361 -0.159381 15.511244 -9.125101 3.059252 -6.562967 -16.975682 6.713052 -3.891924 -4.161367 36.134055 -48.226724 -25.587990 35.841633 -7.749293 8.294729 8.112068 -9.502058 -43.790103 -11.426024 -9.055964 -4.611940 -11.330587 -34.821312 -5.824989 -36.184157 -19.221138 15.551689 -15.366818 -4.444958 32.617801 4.226547 -26.414875 -14.231324 7.417553 80.247645 10.344884 2.779440 0.338785 4.379702 -0.213441 -7.684283 0.210957 -13.789655 -32.216068 -17.699475 46.641939 76.442514 40.033428 -27.964925 -4.745737 -0.259055 0.321598 -0.931747 0.196621
-32.122429 57.410306 92.251703 -164.456713 -45.632465 -0.988332 -9.013871 24.019547 0.808177 -1.420536 3.985332 0.176550 -2.262252 6.353546 0.234957 -7.272532 20.054431 -0.137824 -0.198677 15.582493 -9.125117 3.065208 -6.479941 -16.991364 6.748983 -3.889280 -4.153305 36.278894 -48.417158 -25.763403 35.344198 -7.553726 8.195616 7.855480 -9.099605 -43.472624 -11.397479 -9.057431 -4.598557 -11.262870 -34.679760 -5.798706 -35.936349 -19.624823 15.241989 -15.224863 -4.603873 32.758846 4.374939 -26.451131 -14.227471 7.151769 80.264267 10.111917 2.685506 0.548723 4.348467 -0.121840 -7.818356 0.258964 -13.870955 -32.242506 -17.588940 46.657363 76.418585 39.900310 -27.994466 -4.693990 -0.298663 0.335566 -0.933662 0.205188
-32.119306 57.405974 92.285164 -164.459361 -45.763068 -0.947217 -9.003082 24.027594 0.779383 -1.417247 3.988615 0.173999 -2.256980 6.358559 0.230887 -7.255432 20.064895 -0.149305 -0.207942 15.635340 -9.126980 3.046588 -6.383902 -16.985710 6.782409 -3.893464 -4.148800 36.403730 -48.595174 -25.910477 34.764004 -7.407413 8.079382 7.577046 -8.632058 -43.122045 -11.368106 -9.064042 -4.583416 -11.199825 -34.525857 -5.764160 -35.778640 -20.033662 14.940932 -15.097226 -4.753979 32.882512 4.416490 -26.330070 -14.252982 6.968790 80.250974 9.911710 2.688124 0.583087 4.382461 -0.118125 -7.820195 0.260813 -13.932023 -32.161745 -17.585188 46.596022 76.390490 39.741789 -28.024391 -4.618729 -0.348624 0.312440 -0.944831 0.203536
-32.128422 57.398590 92.324386 -164.442023 -45.873195 -0.828084 -9.047292 24.001978 0.652354 -1.413891 3.991733 0.171591 -2.251685 6.363447 0.226985 -7.238221 20.075162 -0.160184 -0.152019 15.651722 -9.132826 2.978108 -6.236270 -16.951345 6.811689 -3.904838 -4.146205 36.508594 -48.758646 -26.034756 34.099474 -7.315995 7.951561 7.281791 -8.104637 -42.743938 -11.338468 -9.077636 -4.565378 -11.146755 -34.355725 -5.723599 -35.699621 -20.453039 14.653789 -14.977754 -4.889902 32.985968 4.458114 -26.243408 -14.350562 6.542077 80.271262 9.393813 2.728306 0.605868 4.454895 -0.116917 -7.825410 0.265831 -13.926183 -32.114254 -17.703054 46.578629 76.316658 39.661852 -28.111984 -4.566594 -0.412943 0.322110 -0.919855 0.205083
-32.120027 57.394512 92.355216 -164.457993 -46.012610 -0.789008 -9.027947 24.021036 0.631026 -1.410805 3.994424 0.169161 -2.246874 6.367621 0.223093 -7.222831 20.084100 -0.171150 -0.150732 15.712317 -9.129122 2.970882 -6.124680 -16.939080 6.839788 -3.918888 -4.144655 36.594478 -48.908867 -26.143631 33.363362 -7.277643 7.816181 6.980055 -7.547269 -42.354101 -11.306864 -9.095774 -4.544588 -11.112663 -34.166069 -5.675940 -35.680180 -20.890607 14.394747 -14.858028 -5.024304 33.074526 4.487318 -26.118428 -14.343402 6.173023 80.264052 8.990320 2.754382 0.640004 4.493132 -0.112606 -7.828168 0.267206 -13.932791 -32.006245 -17.722806 46.582657 76.270715 39.626148 -28.183627 -4.509295 -0.451935 0.352025 -0.931543 0.198622
-32.105498 57.392340 92.381804 -164.500883 -46.169870 -0.765402 -8.981122 24.061448 0.642561 -1.408344 3.996570 0.166321 -2.257812 6.425907 0.209026 -7.215983 20.088000 -0.176955 -0.118525 15.730465 -9.122233 2.975191 -5.997160 -16.922639 6.897114 -3.983956 -4.150411 36.656315 -49.049181 -26.234942 32.578478 -7.282902 7.672856 6.670711 -6.995441 -41.963357 -11.246220 -9.164708 -4.513364 -11.103833 -33.956497 -5.619460 -35.710966 -21.352132 14.176733 -14.735038 -5.178005 33.156171 4.538834 -25.969174 -14.307869 5.767344 80.249794 8.586922 2.781232 0.674938 4.513295 -0.107384 -7.828051 0.271842 -13.899964 -31.859762 -17.739415 46.568003 76.256372 39.600117 -28.125601 -4.485291 -0.469723 0.288114 -0.937777 0.192425
-32.100977 57.379015 92.421128 -164.500232 -46.236964 -0.691431 -8.997802 23.999393 0.579747 -1.406258 3.998221 0.163252 -2.246787 6.401151 0.209297 -7.203801 20.095129 -0.194801 -0.115256 15.835141 -9.111857 2.989987 -5.848641 -16.901115 6.920364 -3.975995 -4.148063 36.693517 -49.184337 -26.307816 31.766685 -7.323483 7.522283 6.354575 -6.480847 -41.580561 -11.216324 -9.162391 -4.495934 -11.111115 -33.728836 -5.556106 -35.800844 -21.846319 13.998654 -14.615256 -5.358212 33.234730 4.613945 -25.918194 -14.393069 5.517015 80.253997 8.343575 2.796848 0.698851 4.536632 -0.101896 -7.821151 0.276144 -13.908967 -31.836398 -17.783201 46.670648 76.154691 39.657317 -28.271649 -4.409390 -0.567804 0.344932 -0.938154 0.223626
-32.091903 57.367058 92.456909 -164.510122 -46.316292 -0.641388 -9.003949 24.012537 0.534284 -1.391888 3.940512 0.171788 -2.252738 6.432296 0.200088 -7.171549 20.044313 -0.196796 -0.141047 15.958697 -9.105832 3.044482 -5.686000 -16.878340 6.939670 -3.967683 -4.145599 36.715324 -49.319336 -26.368341 30.939866 -7.399069 7.366122 6.034444 -6.022833 -41.209848 -11.188129 -9.161801 -4.476133 -11.126216 -33.489128 -5.487956 -35.957271 -22.372568 13.853577 -14.497840 -5.563151 33.313303 4.674844 -25.853918 -14.441915 5.385583 80.248423 8.225270 2.791636 0.723775 4.549240 -0.097602 -7.812578 0.280210 -13.920602 -31.788880 -17.800958 46.729039 76.082237 39.676875 -28.361126 -4.369251 -0.631494 0.335102 -0.916964 0.229072
